<?xml version="1.0" encoding="utf-8"?>
<!-- Generator: Adobe Illustrator 21.0.0, SVG Export Plug-In . SVG Version: 6.00 Build 0)  -->
<svg version="1.1" id="Capa_1" xmlns="http://www.w3.org/2000/svg" xmlns:xlink="http://www.w3.org/1999/xlink" x="0px" y="0px"
	 viewBox="0 0 72 68.3" style="enable-background:new 0 0 72 68.3;" xml:space="preserve">
<style type="text/css">
	.st0{fill:#101C23;}
</style>
<g>
	<path class="st0" d="M45.3,66.4c-1.2-0.9-1.4-2.3-1.4-2.3l-0.5-3H28.5l-0.4,3c0,0-0.1,1.4-1.4,2.3c-1.2,0.9-2.2,1.7-1.2,1.9
		c1,0,9.9,0,10.6,0c0.6,0,9.5,0,10.6,0C47.5,68.1,46.6,67.3,45.3,66.4z"/>
	<g>
		<path class="st0" d="M19.2,42.5c4,0,4.5-1,5.8-5c2.4-6.3,13.2,1.7,6.5,4.4C24.8,44.7,15.2,42.6,19.2,42.5z"/>
		<path class="st0" d="M60,0.9c-1.9-1.6-5.1-0.8-7.1,1.7l-20.4,29c-2,2.5-2,2-0.1,3.6c1.9,1.6,1.4,1.7,3.5-0.9l24-26.1
			C61.9,5.8,62,2.5,60,0.9z M54.8,4.4c0,0-0.3-0.4-1.3-1.2c1.5-2.4,4.5-2,4.5-2C55.2,2.9,54.8,4.4,54.8,4.4z"/>
	</g>
	<path class="st0" d="M69.1,10.7h-9l-4,4.3h11.5v34.6H4.3V15.1h36.9l3-4.3H2.9C1.3,10.7,0,12,0,13.6v41.8c0,1.6,1.3,2.9,2.9,2.9
		h66.2c1.6,0,2.9-1.3,2.9-2.9V13.6C72,12,70.7,10.7,69.1,10.7z"/>
</g>
</svg>
