<?xml version="1.0" encoding="utf-8"?>
<!-- Generator: Adobe Illustrator 21.0.0, SVG Export Plug-In . SVG Version: 6.00 Build 0)  -->
<svg version="1.1" id="Layer_1" xmlns="http://www.w3.org/2000/svg" xmlns:xlink="http://www.w3.org/1999/xlink" x="0px" y="0px"
	 viewBox="0 0 375 175" style="enable-background:new 0 0 375 175;" xml:space="preserve">
<style type="text/css">
	.st0{fill:none;stroke:#000000;stroke-width:2.8346;stroke-linecap:round;stroke-miterlimit:10;}
</style>
<path d="M374.5,89.8C374.5,89.8,374.5,89.7,374.5,89.8c0.3-0.7,0.4-1.4,0.4-2.1c0-0.7-0.1-1.4-0.4-2c0,0,0-0.1,0-0.1
	c-0.3-0.7-0.7-1.3-1.2-1.8c0,0,0,0,0,0L291.1,1.6c-2.2-2.2-5.7-2.2-7.8,0c-2.2,2.2-2.2,5.7,0,7.8L356,82.2H5.5
	c-3.1,0-5.5,2.5-5.5,5.5c0,3.1,2.5,5.5,5.5,5.5H356l-72.7,72.7c-2.2,2.2-2.2,5.7,0,7.8c1.1,1.1,2.5,1.6,3.9,1.6
	c1.4,0,2.8-0.5,3.9-1.6l82.2-82.2c0,0,0,0,0,0C373.8,91.1,374.2,90.5,374.5,89.8z"/>
</svg>
